<svg width="13" height="13" viewBox="0 0 120 130" fill="none" xmlns="http://www.w3.org/2000/svg">
    <g clip-path="url(#clip0_11047_30899)">
        <path d="M49.7683 17.8125H75.7586C77.1851 17.8125 78.3415 18.9689 78.3415 20.3954C78.3415 20.7858 78.2529 21.1712 78.0826 21.5225L42.7287 94.423C40.4257 99.1719 35.6118 102.188 30.3339 102.188H4.34365C2.91715 102.188 1.76074 101.031 1.76074 99.6046C1.76074 99.2142 1.84925 98.8288 2.01962 98.4775L37.3735 25.577C39.6765 20.8281 44.4904 17.8125 49.7683 17.8125Z" fill="url(#paint0_linear_11047_30899)"/>
        <mask id="mask0_11047_30899" style="mask-type:luminance" maskUnits="userSpaceOnUse" x="1" y="17" width="78" height="86">
            <path d="M49.7683 17.8125H75.7586C77.1851 17.8125 78.3415 18.9689 78.3415 20.3954C78.3415 20.7858 78.2529 21.1712 78.0826 21.5225L42.7287 94.423C40.4257 99.1719 35.6118 102.188 30.3339 102.188H4.34365C2.91715 102.188 1.76074 101.031 1.76074 99.6046C1.76074 99.2142 1.84925 98.8288 2.01962 98.4775L37.3735 25.577C39.6765 20.8281 44.4904 17.8125 49.7683 17.8125Z" fill="#39E9FF"/>
        </mask>
        <g mask="url(#mask0_11047_30899)">
            <path fill-rule="evenodd" clip-rule="evenodd" d="M80.1755 17.8125L60.6365 57.832L41.0977 17.8125H80.1755Z" fill="url(#paint1_linear_11047_30899)"/>
        </g>
        <path fill-rule="evenodd" clip-rule="evenodd" d="M103.068 65.4207L119.1 98.4775C119.723 99.7611 119.187 101.306 117.903 101.929C117.552 102.099 117.167 102.188 116.776 102.188H90.7862C85.5083 102.188 80.6943 99.1719 78.3913 94.423L60.5605 57.6562H90.6736C95.9515 57.6562 100.765 60.6718 103.068 65.4207Z" fill="url(#paint2_linear_11047_30899)"/>
    </g>
    <defs>
        <linearGradient id="paint0_linear_11047_30899" x1="42.4079" y1="11.7857" x2="-11.7677" y2="103.223" gradientUnits="userSpaceOnUse">
            <stop stop-color="#391EF0"/>
            <stop offset="1" stop-color="#5DABFF"/>
        </linearGradient>
        <linearGradient id="paint1_linear_11047_30899" x1="82.7588" y1="17.8125" x2="41.0977" y2="17.8125" gradientUnits="userSpaceOnUse">
            <stop stop-color="#39E9FF"/>
            <stop offset="1" stop-color="#175AFF"/>
        </linearGradient>
        <linearGradient id="paint2_linear_11047_30899" x1="108.881" y1="96.1607" x2="72.5303" y2="48.7512" gradientUnits="userSpaceOnUse">
            <stop stop-color="#FFAA8F"/>
            <stop offset="1" stop-color="#EE00FF"/>
        </linearGradient>
        <clipPath id="clip0_11047_30899">
            <rect width="117.656" height="84.3751" fill="white" transform="translate(1.62646 17.8125)"/>
        </clipPath>
    </defs>
</svg>
